<svg version="1.1" viewBox="0.0 0.0 11338.582677165354 453.54330708661416" fill="none" stroke="none" stroke-linecap="square" stroke-miterlimit="10" xmlns:xlink="http://www.w3.org/1999/xlink" xmlns="http://www.w3.org/2000/svg"><clipPath id="p.0"><path d="m0 0l11338.583 0l0 453.5433l-11338.583 0l0 -453.5433z" clip-rule="nonzero"/></clipPath><g clip-path="url(#p.0)"><path fill="#000000" fill-opacity="0.0" d="m0 0l11338.583 0l0 453.5433l-11338.583 0z" fill-rule="evenodd"/><path fill="#000000" fill-opacity="0.0" d="m6509.2593 365.6577l311.7793 0l0 -196.18898l-311.7793 0z" fill-rule="evenodd"/><path stroke="#0000ff" stroke-width="12.0" stroke-linejoin="round" stroke-linecap="butt" d="m6509.2593 365.6577l311.7793 0l0 -196.18898l-311.7793 0z" fill-rule="evenodd"/><path fill="#000000" fill-opacity="0.0" d="m6927.8057 256.71127l153.66943 0l0 145.22836l-153.66943 0z" fill-rule="evenodd"/><path stroke="#ffff00" stroke-width="12.0" stroke-linejoin="round" stroke-linecap="butt" d="m6927.8057 256.71127l153.66943 0l0 145.22836l-153.66943 0z" fill-rule="evenodd"/><path fill="#000000" fill-opacity="0.0" d="m6843.4385 357.7953l81.85791 0l0 -333.7953l-81.85791 0z" fill-rule="evenodd"/><path stroke="#ff00ff" stroke-width="12.0" stroke-linejoin="round" stroke-linecap="butt" d="m6843.4385 357.7953l81.85791 0l0 -333.7953l-81.85791 0z" fill-rule="evenodd"/><path fill="#000000" fill-opacity="0.0" d="m6187.1855 254.42546l0 -81.85826l-333.7954 0l0 81.85826z" fill-rule="evenodd"/><path stroke="#00ff00" stroke-width="12.0" stroke-linejoin="round" stroke-linecap="butt" d="m6187.1855 254.42546l0 -81.85826l-333.7954 0l0 81.85826z" fill-rule="evenodd"/><path fill="#000000" fill-opacity="0.0" d="m6366.3438 341.98688l0 0c0 33.110992 27.215332 59.95276 60.787598 59.95276l0 0c16.121582 0 31.583008 -6.316437 42.98291 -17.559753c11.399902 -11.243317 17.8042 -26.492554 17.8042 -42.393005l0 0c0 -33.110992 -27.215332 -59.95276 -60.78711 -59.95276l0 0c-33.572266 0 -60.787598 26.841766 -60.787598 59.95276z" fill-rule="evenodd"/><path stroke="#9900ff" stroke-width="12.0" stroke-linejoin="round" stroke-linecap="butt" d="m6366.3438 341.98688l0 0c0 33.110992 27.215332 59.95276 60.787598 59.95276l0 0c16.121582 0 31.583008 -6.316437 42.98291 -17.559753c11.399902 -11.243317 17.8042 -26.492554 17.8042 -42.393005l0 0c0 -33.110992 -27.215332 -59.95276 -60.78711 -59.95276l0 0c-33.572266 0 -60.787598 26.841766 -60.787598 59.95276z" fill-rule="evenodd"/><path fill="#000000" fill-opacity="0.0" d="m6531.6245 205.79527l153.66943 0l0 -145.22835l-153.66943 0z" fill-rule="evenodd"/><path stroke="#ff0000" stroke-width="12.0" stroke-linejoin="round" stroke-linecap="butt" d="m6531.6245 205.79527l153.66943 0l0 -145.22835l-153.66943 0z" fill-rule="evenodd"/><path fill="#000000" fill-opacity="0.0" d="m6345.002 368.85193l0 -311.7795l-196.18896 0l0 311.7795z" fill-rule="evenodd"/><path stroke="#ff9900" stroke-width="12.0" stroke-linejoin="round" stroke-linecap="butt" d="m6345.002 368.85193l0 -311.7795l-196.18896 0l0 311.7795z" fill-rule="evenodd"/><path fill="#000000" fill-opacity="0.0" d="m5345.1753 68.28192l311.7793 0l0 196.18896l-311.7793 0z" fill-rule="evenodd"/><path stroke="#ff0000" stroke-width="12.0" stroke-linejoin="round" stroke-linecap="butt" d="m5345.1753 68.28192l311.7793 0l0 196.18896l-311.7793 0z" fill-rule="evenodd"/><path fill="#000000" fill-opacity="0.0" d="m5763.7217 32.0l153.66943 0l0 145.22835l-153.66943 0z" fill-rule="evenodd"/><path stroke="#ff9900" stroke-width="12.0" stroke-linejoin="round" stroke-linecap="butt" d="m5763.7217 32.0l153.66943 0l0 145.22835l-153.66943 0z" fill-rule="evenodd"/><path fill="#000000" fill-opacity="0.0" d="m5679.3545 76.144356l81.85791 0l0 333.7953l-81.85791 0z" fill-rule="evenodd"/><path stroke="#00ff00" stroke-width="12.0" stroke-linejoin="round" stroke-linecap="butt" d="m5679.3545 76.144356l81.85791 0l0 333.7953l-81.85791 0z" fill-rule="evenodd"/><path fill="#000000" fill-opacity="0.0" d="m5023.101 171.51418l0 81.85826l-333.79492 0l0 -81.85826z" fill-rule="evenodd"/><path stroke="#9900ff" stroke-width="12.0" stroke-linejoin="round" stroke-linecap="butt" d="m5023.101 171.51418l0 81.85826l-333.79492 0l0 -81.85826z" fill-rule="evenodd"/><path fill="#000000" fill-opacity="0.0" d="m5202.26 91.95276l0 0c0 -33.110996 27.215332 -59.95276 60.787598 -59.95276l0 0c16.121582 0 31.583008 6.316433 42.98291 17.559757c11.399902 11.24332 17.8042 26.492542 17.8042 42.393l0 0c0 33.110992 -27.215332 59.95276 -60.78711 59.95276l0 0c-33.572266 0 -60.787598 -26.841766 -60.787598 -59.95276z" fill-rule="evenodd"/><path stroke="#0000ff" stroke-width="12.0" stroke-linejoin="round" stroke-linecap="butt" d="m5202.26 91.95276l0 0c0 -33.110996 27.215332 -59.95276 60.787598 -59.95276l0 0c16.121582 0 31.583008 6.316433 42.98291 17.559757c11.399902 11.24332 17.8042 26.492542 17.8042 42.393l0 0c0 33.110992 -27.215332 59.95276 -60.78711 59.95276l0 0c-33.572266 0 -60.787598 -26.841766 -60.787598 -59.95276z" fill-rule="evenodd"/><path fill="#000000" fill-opacity="0.0" d="m5367.5405 228.14436l153.66943 0l0 145.22835l-153.66943 0z" fill-rule="evenodd"/><path stroke="#ff00ff" stroke-width="12.0" stroke-linejoin="round" stroke-linecap="butt" d="m5367.5405 228.14436l153.66943 0l0 145.22835l-153.66943 0z" fill-rule="evenodd"/><path fill="#000000" fill-opacity="0.0" d="m5180.918 65.0877l0 311.7795l-196.18896 0l0 -311.7795z" fill-rule="evenodd"/><path stroke="#ffff00" stroke-width="12.0" stroke-linejoin="round" stroke-linecap="butt" d="m5180.918 65.0877l0 311.7795l-196.18896 0l0 -311.7795z" fill-rule="evenodd"/><path fill="#000000" fill-opacity="0.0" d="m3013.2593 68.28192l311.77954 0l0 196.18896l-311.77954 0z" fill-rule="evenodd"/><path stroke="#ffff00" stroke-width="12.0" stroke-linejoin="round" stroke-linecap="butt" d="m3013.2593 68.28192l311.77954 0l0 196.18896l-311.77954 0z" fill-rule="evenodd"/><path fill="#000000" fill-opacity="0.0" d="m3431.8057 32.0l153.66943 0l0 145.22835l-153.66943 0z" fill-rule="evenodd"/><path stroke="#ff0000" stroke-width="12.0" stroke-linejoin="round" stroke-linecap="butt" d="m3431.8057 32.0l153.66943 0l0 145.22835l-153.66943 0z" fill-rule="evenodd"/><path fill="#000000" fill-opacity="0.0" d="m3347.4382 76.144356l81.8584 0l0 333.7953l-81.8584 0z" fill-rule="evenodd"/><path stroke="#0000ff" stroke-width="12.0" stroke-linejoin="round" stroke-linecap="butt" d="m3347.4382 76.144356l81.8584 0l0 333.7953l-81.8584 0z" fill-rule="evenodd"/><path fill="#000000" fill-opacity="0.0" d="m2691.1853 179.51418l0 81.85826l-333.79517 0l0 -81.85826z" fill-rule="evenodd"/><path stroke="#ff00ff" stroke-width="12.0" stroke-linejoin="round" stroke-linecap="butt" d="m2691.1853 179.51418l0 81.85826l-333.79517 0l0 -81.85826z" fill-rule="evenodd"/><path fill="#000000" fill-opacity="0.0" d="m2870.3438 91.95276l0 0c0 -33.110996 27.215576 -59.95276 60.787598 -59.95276l0 0c16.121826 0 31.583252 6.316433 42.983154 17.559757c11.399658 11.24332 17.8042 26.492542 17.8042 42.393l0 0c0 33.110992 -27.215576 59.95276 -60.787354 59.95276l0 0c-33.57202 0 -60.787598 -26.841766 -60.787598 -59.95276z" fill-rule="evenodd"/><path stroke="#ff9900" stroke-width="12.0" stroke-linejoin="round" stroke-linecap="butt" d="m2870.3438 91.95276l0 0c0 -33.110996 27.215576 -59.95276 60.787598 -59.95276l0 0c16.121826 0 31.583252 6.316433 42.983154 17.559757c11.399658 11.24332 17.8042 26.492542 17.8042 42.393l0 0c0 33.110992 -27.215576 59.95276 -60.787354 59.95276l0 0c-33.57202 0 -60.787598 -26.841766 -60.787598 -59.95276z" fill-rule="evenodd"/><path fill="#000000" fill-opacity="0.0" d="m2849.002 65.0877l0 311.7795l-196.18896 0l0 -311.7795z" fill-rule="evenodd"/><path stroke="#00ff00" stroke-width="12.0" stroke-linejoin="round" stroke-linecap="butt" d="m2849.002 65.0877l0 311.7795l-196.18896 0l0 -311.7795z" fill-rule="evenodd"/><path fill="#000000" fill-opacity="0.0" d="m3035.6248 228.14436l153.66919 0l0 145.22835l-153.66919 0z" fill-rule="evenodd"/><path stroke="#9900ff" stroke-width="12.0" stroke-linejoin="round" stroke-linecap="butt" d="m3035.6248 228.14436l153.66919 0l0 145.22835l-153.66919 0z" fill-rule="evenodd"/><path fill="#000000" fill-opacity="0.0" d="m1849.1753 373.6577l311.77954 0l0 -196.18898l-311.77954 0z" fill-rule="evenodd"/><path stroke="#ff00ff" stroke-width="12.0" stroke-linejoin="round" stroke-linecap="butt" d="m1849.1753 373.6577l311.77954 0l0 -196.18898l-311.77954 0z" fill-rule="evenodd"/><path fill="#000000" fill-opacity="0.0" d="m2267.7217 409.93964l153.66943 0l0 -145.22836l-153.66943 0z" fill-rule="evenodd"/><path stroke="#9900ff" stroke-width="12.0" stroke-linejoin="round" stroke-linecap="butt" d="m2267.7217 409.93964l153.66943 0l0 -145.22836l-153.66943 0z" fill-rule="evenodd"/><path fill="#000000" fill-opacity="0.0" d="m2183.3542 365.7953l81.8584 0l0 -333.7953l-81.8584 0z" fill-rule="evenodd"/><path stroke="#ff9900" stroke-width="12.0" stroke-linejoin="round" stroke-linecap="butt" d="m2183.3542 365.7953l81.8584 0l0 -333.7953l-81.8584 0z" fill-rule="evenodd"/><path fill="#000000" fill-opacity="0.0" d="m1527.1013 270.42548l0 -81.85828l-333.7953 0l0 81.85828z" fill-rule="evenodd"/><path stroke="#0000ff" stroke-width="12.0" stroke-linejoin="round" stroke-linecap="butt" d="m1527.1013 270.42548l0 -81.85828l-333.7953 0l0 81.85828z" fill-rule="evenodd"/><path fill="#000000" fill-opacity="0.0" d="m1706.2599 349.98688l0 0c0 33.110992 27.215454 59.95276 60.787354 59.95276l0 0c16.121826 0 31.583374 -6.316437 42.983154 -17.559753c11.399902 -11.243317 17.8042 -26.492554 17.8042 -42.393005l0 0c0 -33.110992 -27.215454 -59.95276 -60.787354 -59.95276l0 0c-33.5719 0 -60.787354 26.841766 -60.787354 59.95276z" fill-rule="evenodd"/><path stroke="#00ff00" stroke-width="12.0" stroke-linejoin="round" stroke-linecap="butt" d="m1706.2599 349.98688l0 0c0 33.110992 27.215454 59.95276 60.787354 59.95276l0 0c16.121826 0 31.583374 -6.316437 42.983154 -17.559753c11.399902 -11.243317 17.8042 -26.492554 17.8042 -42.393005l0 0c0 -33.110992 -27.215454 -59.95276 -60.787354 -59.95276l0 0c-33.5719 0 -60.787354 26.841766 -60.787354 59.95276z" fill-rule="evenodd"/><path fill="#000000" fill-opacity="0.0" d="m1684.9181 376.85193l0 -311.7795l-196.18896 0l0 311.7795z" fill-rule="evenodd"/><path stroke="#ff0000" stroke-width="12.0" stroke-linejoin="round" stroke-linecap="butt" d="m1684.9181 376.85193l0 -311.7795l-196.18896 0l0 311.7795z" fill-rule="evenodd"/><path fill="#000000" fill-opacity="0.0" d="m1871.5406 213.79527l153.66931 0l0 -145.22833l-153.66931 0z" fill-rule="evenodd"/><path stroke="#ffff00" stroke-width="12.0" stroke-linejoin="round" stroke-linecap="butt" d="m1871.5406 213.79527l153.66931 0l0 -145.22833l-153.66931 0z" fill-rule="evenodd"/><path fill="#000000" fill-opacity="0.0" d="m681.1753 68.28192l311.77948 0l0 196.18896l-311.77948 0z" fill-rule="evenodd"/><path stroke="#9900ff" stroke-width="12.0" stroke-linejoin="round" stroke-linecap="butt" d="m681.1753 68.28192l311.77948 0l0 196.18896l-311.77948 0z" fill-rule="evenodd"/><path fill="#000000" fill-opacity="0.0" d="m1099.7218 32.0l153.66931 0l0 145.22835l-153.66931 0z" fill-rule="evenodd"/><path stroke="#ff00ff" stroke-width="12.0" stroke-linejoin="round" stroke-linecap="butt" d="m1099.7218 32.0l153.66931 0l0 145.22835l-153.66931 0z" fill-rule="evenodd"/><path fill="#000000" fill-opacity="0.0" d="m1015.3543 76.144356l81.85834 0l0 333.7953l-81.85834 0z" fill-rule="evenodd"/><path stroke="#ffff00" stroke-width="12.0" stroke-linejoin="round" stroke-linecap="butt" d="m1015.3543 76.144356l81.85834 0l0 333.7953l-81.85834 0z" fill-rule="evenodd"/><path fill="#000000" fill-opacity="0.0" d="m359.10132 171.51418l0 81.85826l-333.7953 0l0 -81.85826z" fill-rule="evenodd"/><path stroke="#ff9900" stroke-width="12.0" stroke-linejoin="round" stroke-linecap="butt" d="m359.10132 171.51418l0 81.85826l-333.7953 0l0 -81.85826z" fill-rule="evenodd"/><path fill="#000000" fill-opacity="0.0" d="m538.2598 91.95276l0 0c0 -33.110996 27.215454 -59.95276 60.787415 -59.95276l0 0c16.121826 0 31.583313 6.316433 42.983215 17.559757c11.399841 11.24332 17.8042 26.492542 17.8042 42.393l0 0c0 33.110992 -27.215454 59.95276 -60.787415 59.95276l0 0c-33.57196 0 -60.787415 -26.841766 -60.787415 -59.95276z" fill-rule="evenodd"/><path stroke="#ff0000" stroke-width="12.0" stroke-linejoin="round" stroke-linecap="butt" d="m538.2598 91.95276l0 0c0 -33.110996 27.215454 -59.95276 60.787415 -59.95276l0 0c16.121826 0 31.583313 6.316433 42.983215 17.559757c11.399841 11.24332 17.8042 26.492542 17.8042 42.393l0 0c0 33.110992 -27.215454 59.95276 -60.787415 59.95276l0 0c-33.57196 0 -60.787415 -26.841766 -60.787415 -59.95276z" fill-rule="evenodd"/><path fill="#000000" fill-opacity="0.0" d="m516.918 65.0877l0 311.7795l-196.18896 0l0 -311.7795z" fill-rule="evenodd"/><path stroke="#0000ff" stroke-width="12.0" stroke-linejoin="round" stroke-linecap="butt" d="m516.918 65.0877l0 311.7795l-196.18896 0l0 -311.7795z" fill-rule="evenodd"/><path fill="#000000" fill-opacity="0.0" d="m703.5407 228.14436l153.66925 0l0 145.22835l-153.66925 0z" fill-rule="evenodd"/><path stroke="#00ff00" stroke-width="12.0" stroke-linejoin="round" stroke-linecap="butt" d="m703.5407 228.14436l153.66925 0l0 145.22835l-153.66925 0z" fill-rule="evenodd"/><path fill="#000000" fill-opacity="0.0" d="m4177.1753 373.6577l311.7793 0l0 -196.18898l-311.7793 0z" fill-rule="evenodd"/><path stroke="#00ff00" stroke-width="12.0" stroke-linejoin="round" stroke-linecap="butt" d="m4177.1753 373.6577l311.7793 0l0 -196.18898l-311.7793 0z" fill-rule="evenodd"/><path fill="#000000" fill-opacity="0.0" d="m4595.7217 409.93964l153.66943 0l0 -145.22836l-153.66943 0z" fill-rule="evenodd"/><path stroke="#0000ff" stroke-width="12.0" stroke-linejoin="round" stroke-linecap="butt" d="m4595.7217 409.93964l153.66943 0l0 -145.22836l-153.66943 0z" fill-rule="evenodd"/><path fill="#000000" fill-opacity="0.0" d="m4511.3545 365.7953l81.85791 0l0 -333.7953l-81.85791 0z" fill-rule="evenodd"/><path stroke="#ff0000" stroke-width="12.0" stroke-linejoin="round" stroke-linecap="butt" d="m4511.3545 365.7953l81.85791 0l0 -333.7953l-81.85791 0z" fill-rule="evenodd"/><path fill="#000000" fill-opacity="0.0" d="m3855.1013 270.42548l0 -81.85828l-333.79517 0l0 81.85828z" fill-rule="evenodd"/><path stroke="#ffff00" stroke-width="12.0" stroke-linejoin="round" stroke-linecap="butt" d="m3855.1013 270.42548l0 -81.85828l-333.79517 0l0 81.85828z" fill-rule="evenodd"/><path fill="#000000" fill-opacity="0.0" d="m4034.2598 349.98688l0 0c0 33.110992 27.215576 59.95276 60.787598 59.95276l0 0c16.121582 0 31.583008 -6.316437 42.98291 -17.559753c11.399902 -11.243317 17.8042 -26.492554 17.8042 -42.393005l0 0c0 -33.110992 -27.215332 -59.95276 -60.78711 -59.95276l0 0c-33.57202 0 -60.787598 26.841766 -60.787598 59.95276z" fill-rule="evenodd"/><path stroke="#ff00ff" stroke-width="12.0" stroke-linejoin="round" stroke-linecap="butt" d="m4034.2598 349.98688l0 0c0 33.110992 27.215576 59.95276 60.787598 59.95276l0 0c16.121582 0 31.583008 -6.316437 42.98291 -17.559753c11.399902 -11.243317 17.8042 -26.492554 17.8042 -42.393005l0 0c0 -33.110992 -27.215332 -59.95276 -60.78711 -59.95276l0 0c-33.57202 0 -60.787598 26.841766 -60.787598 59.95276z" fill-rule="evenodd"/><path fill="#000000" fill-opacity="0.0" d="m4199.5405 213.79527l153.66943 0l0 -145.22833l-153.66943 0z" fill-rule="evenodd"/><path stroke="#ff9900" stroke-width="12.0" stroke-linejoin="round" stroke-linecap="butt" d="m4199.5405 213.79527l153.66943 0l0 -145.22833l-153.66943 0z" fill-rule="evenodd"/><path fill="#000000" fill-opacity="0.0" d="m4012.918 376.85193l0 -311.7795l-196.18896 0l0 311.7795z" fill-rule="evenodd"/><path stroke="#9900ff" stroke-width="12.0" stroke-linejoin="round" stroke-linecap="butt" d="m4012.918 376.85193l0 -311.7795l-196.18896 0l0 311.7795z" fill-rule="evenodd"/><path fill="#000000" fill-opacity="0.0" d="m13431.217 367.45822l311.78027 0l0 -196.18896l-311.78027 0z" fill-rule="evenodd"/><path stroke="#0000ff" stroke-width="12.0" stroke-linejoin="round" stroke-linecap="butt" d="m13431.217 367.45822l311.78027 0l0 -196.18896l-311.78027 0z" fill-rule="evenodd"/><path fill="#000000" fill-opacity="0.0" d="m13849.764 258.5118l153.66895 0l0 145.22833l-153.66895 0z" fill-rule="evenodd"/><path stroke="#ffff00" stroke-width="12.0" stroke-linejoin="round" stroke-linecap="butt" d="m13849.764 258.5118l153.66895 0l0 145.22833l-153.66895 0z" fill-rule="evenodd"/><path fill="#000000" fill-opacity="0.0" d="m13765.396 359.5958l81.8584 0l0 -333.79526l-81.8584 0z" fill-rule="evenodd"/><path stroke="#ff00ff" stroke-width="12.0" stroke-linejoin="round" stroke-linecap="butt" d="m13765.396 359.5958l81.8584 0l0 -333.79526l-81.8584 0z" fill-rule="evenodd"/><path fill="#000000" fill-opacity="0.0" d="m13109.144 256.22598l0 -81.85826l-333.7959 0l0 81.85826z" fill-rule="evenodd"/><path stroke="#00ff00" stroke-width="12.0" stroke-linejoin="round" stroke-linecap="butt" d="m13109.144 256.22598l0 -81.85826l-333.7959 0l0 81.85826z" fill-rule="evenodd"/><path fill="#000000" fill-opacity="0.0" d="m13288.302 343.7874l0 0c0 33.110992 27.21582 59.95273 60.78711 59.95273l0 0c16.12207 0 31.583984 -6.3164062 42.9834 -17.559753c11.400391 -11.243317 17.804688 -26.492523 17.804688 -42.392975l0 0c0 -33.110992 -27.21582 -59.95276 -60.788086 -59.95276l0 0c-33.57129 0 -60.78711 26.841766 -60.78711 59.95276z" fill-rule="evenodd"/><path stroke="#9900ff" stroke-width="12.0" stroke-linejoin="round" stroke-linecap="butt" d="m13288.302 343.7874l0 0c0 33.110992 27.21582 59.95273 60.78711 59.95273l0 0c16.12207 0 31.583984 -6.3164062 42.9834 -17.559753c11.400391 -11.243317 17.804688 -26.492523 17.804688 -42.392975l0 0c0 -33.110992 -27.21582 -59.95276 -60.788086 -59.95276l0 0c-33.57129 0 -60.78711 26.841766 -60.78711 59.95276z" fill-rule="evenodd"/><path fill="#000000" fill-opacity="0.0" d="m13453.583 207.5958l153.66895 0l0 -145.22833l-153.66895 0z" fill-rule="evenodd"/><path stroke="#ff0000" stroke-width="12.0" stroke-linejoin="round" stroke-linecap="butt" d="m13453.583 207.5958l153.66895 0l0 -145.22833l-153.66895 0z" fill-rule="evenodd"/><path fill="#000000" fill-opacity="0.0" d="m13266.96 370.65247l0 -311.77954l-196.18848 0l0 311.77954z" fill-rule="evenodd"/><path stroke="#ff9900" stroke-width="12.0" stroke-linejoin="round" stroke-linecap="butt" d="m13266.96 370.65247l0 -311.77954l-196.18848 0l0 311.77954z" fill-rule="evenodd"/><path fill="#000000" fill-opacity="0.0" d="m12251.133 70.08245l311.78027 0l0 196.18896l-311.78027 0z" fill-rule="evenodd"/><path stroke="#ff0000" stroke-width="12.0" stroke-linejoin="round" stroke-linecap="butt" d="m12251.133 70.08245l311.78027 0l0 196.18896l-311.78027 0z" fill-rule="evenodd"/><path fill="#000000" fill-opacity="0.0" d="m12669.68 33.800526l153.66895 0l0 145.22835l-153.66895 0z" fill-rule="evenodd"/><path stroke="#ff9900" stroke-width="12.0" stroke-linejoin="round" stroke-linecap="butt" d="m12669.68 33.800526l153.66895 0l0 145.22835l-153.66895 0z" fill-rule="evenodd"/><path fill="#000000" fill-opacity="0.0" d="m12585.3125 77.944885l81.8584 0l0 333.79526l-81.8584 0z" fill-rule="evenodd"/><path stroke="#00ff00" stroke-width="12.0" stroke-linejoin="round" stroke-linecap="butt" d="m12585.3125 77.944885l81.8584 0l0 333.79526l-81.8584 0z" fill-rule="evenodd"/><path fill="#000000" fill-opacity="0.0" d="m11929.06 173.3147l0 81.85826l-333.7959 0l0 -81.85826z" fill-rule="evenodd"/><path stroke="#9900ff" stroke-width="12.0" stroke-linejoin="round" stroke-linecap="butt" d="m11929.06 173.3147l0 81.85826l-333.7959 0l0 -81.85826z" fill-rule="evenodd"/><path fill="#000000" fill-opacity="0.0" d="m12108.218 93.75328l0 0c0 -33.110992 27.21582 -59.952755 60.78711 -59.952755l0 0c16.12207 0 31.583984 6.316433 42.9834 17.559753c11.400391 11.243324 17.804688 26.492542 17.804688 42.393l0 0c0 33.110992 -27.21582 59.95276 -60.788086 59.95276l0 0c-33.57129 0 -60.78711 -26.841766 -60.78711 -59.95276z" fill-rule="evenodd"/><path stroke="#0000ff" stroke-width="12.0" stroke-linejoin="round" stroke-linecap="butt" d="m12108.218 93.75328l0 0c0 -33.110992 27.21582 -59.952755 60.78711 -59.952755l0 0c16.12207 0 31.583984 6.316433 42.9834 17.559753c11.400391 11.243324 17.804688 26.492542 17.804688 42.393l0 0c0 33.110992 -27.21582 59.95276 -60.788086 59.95276l0 0c-33.57129 0 -60.78711 -26.841766 -60.78711 -59.95276z" fill-rule="evenodd"/><path fill="#000000" fill-opacity="0.0" d="m12273.499 229.94489l153.66895 0l0 145.22833l-153.66895 0z" fill-rule="evenodd"/><path stroke="#ff00ff" stroke-width="12.0" stroke-linejoin="round" stroke-linecap="butt" d="m12273.499 229.94489l153.66895 0l0 145.22833l-153.66895 0z" fill-rule="evenodd"/><path fill="#000000" fill-opacity="0.0" d="m12086.876 66.88822l0 311.77954l-196.18848 0l0 -311.77954z" fill-rule="evenodd"/><path stroke="#ffff00" stroke-width="12.0" stroke-linejoin="round" stroke-linecap="butt" d="m12086.876 66.88822l0 311.77954l-196.18848 0l0 -311.77954z" fill-rule="evenodd"/><path fill="#000000" fill-opacity="0.0" d="m9919.217 70.08245l311.78027 0l0 196.18896l-311.78027 0z" fill-rule="evenodd"/><path stroke="#ffff00" stroke-width="12.0" stroke-linejoin="round" stroke-linecap="butt" d="m9919.217 70.08245l311.78027 0l0 196.18896l-311.78027 0z" fill-rule="evenodd"/><path fill="#000000" fill-opacity="0.0" d="m10337.764 33.800526l153.66895 0l0 145.22835l-153.66895 0z" fill-rule="evenodd"/><path stroke="#ff0000" stroke-width="12.0" stroke-linejoin="round" stroke-linecap="butt" d="m10337.764 33.800526l153.66895 0l0 145.22835l-153.66895 0z" fill-rule="evenodd"/><path fill="#000000" fill-opacity="0.0" d="m10253.396 77.944885l81.8584 0l0 333.79526l-81.8584 0z" fill-rule="evenodd"/><path stroke="#0000ff" stroke-width="12.0" stroke-linejoin="round" stroke-linecap="butt" d="m10253.396 77.944885l81.8584 0l0 333.79526l-81.8584 0z" fill-rule="evenodd"/><path fill="#000000" fill-opacity="0.0" d="m9597.144 181.3147l0 81.85828l-333.7959 0l0 -81.85828z" fill-rule="evenodd"/><path stroke="#ff00ff" stroke-width="12.0" stroke-linejoin="round" stroke-linecap="butt" d="m9597.144 181.3147l0 81.85828l-333.7959 0l0 -81.85828z" fill-rule="evenodd"/><path fill="#000000" fill-opacity="0.0" d="m9776.302 93.75328l0 0c0 -33.110992 27.21582 -59.952755 60.78711 -59.952755l0 0c16.12207 0 31.583984 6.316433 42.9834 17.559753c11.400391 11.243324 17.804688 26.492542 17.804688 42.393l0 0c0 33.110992 -27.21582 59.95276 -60.788086 59.95276l0 0c-33.57129 0 -60.78711 -26.841766 -60.78711 -59.95276z" fill-rule="evenodd"/><path stroke="#ff9900" stroke-width="12.0" stroke-linejoin="round" stroke-linecap="butt" d="m9776.302 93.75328l0 0c0 -33.110992 27.21582 -59.952755 60.78711 -59.952755l0 0c16.12207 0 31.583984 6.316433 42.9834 17.559753c11.400391 11.243324 17.804688 26.492542 17.804688 42.393l0 0c0 33.110992 -27.21582 59.95276 -60.788086 59.95276l0 0c-33.57129 0 -60.78711 -26.841766 -60.78711 -59.95276z" fill-rule="evenodd"/><path fill="#000000" fill-opacity="0.0" d="m9754.96 66.88822l0 311.77954l-196.18848 0l0 -311.77954z" fill-rule="evenodd"/><path stroke="#00ff00" stroke-width="12.0" stroke-linejoin="round" stroke-linecap="butt" d="m9754.96 66.88822l0 311.77954l-196.18848 0l0 -311.77954z" fill-rule="evenodd"/><path fill="#000000" fill-opacity="0.0" d="m9941.583 229.94489l153.66895 0l0 145.22833l-153.66895 0z" fill-rule="evenodd"/><path stroke="#9900ff" stroke-width="12.0" stroke-linejoin="round" stroke-linecap="butt" d="m9941.583 229.94489l153.66895 0l0 145.22833l-153.66895 0z" fill-rule="evenodd"/><path fill="#000000" fill-opacity="0.0" d="m8755.133 375.45822l311.78027 0l0 -196.18896l-311.78027 0z" fill-rule="evenodd"/><path stroke="#ff00ff" stroke-width="12.0" stroke-linejoin="round" stroke-linecap="butt" d="m8755.133 375.45822l311.78027 0l0 -196.18896l-311.78027 0z" fill-rule="evenodd"/><path fill="#000000" fill-opacity="0.0" d="m9173.68 411.74014l153.66895 0l0 -145.22833l-153.66895 0z" fill-rule="evenodd"/><path stroke="#9900ff" stroke-width="12.0" stroke-linejoin="round" stroke-linecap="butt" d="m9173.68 411.74014l153.66895 0l0 -145.22833l-153.66895 0z" fill-rule="evenodd"/><path fill="#000000" fill-opacity="0.0" d="m9089.3125 367.5958l81.8584 0l0 -333.79526l-81.8584 0z" fill-rule="evenodd"/><path stroke="#ff9900" stroke-width="12.0" stroke-linejoin="round" stroke-linecap="butt" d="m9089.3125 367.5958l81.8584 0l0 -333.79526l-81.8584 0z" fill-rule="evenodd"/><path fill="#000000" fill-opacity="0.0" d="m8433.06 272.22598l0 -81.85826l-333.7954 0l0 81.85826z" fill-rule="evenodd"/><path stroke="#0000ff" stroke-width="12.0" stroke-linejoin="round" stroke-linecap="butt" d="m8433.06 272.22598l0 -81.85826l-333.7954 0l0 81.85826z" fill-rule="evenodd"/><path fill="#000000" fill-opacity="0.0" d="m8612.218 351.7874l0 0c0 33.110992 27.21582 59.95273 60.78711 59.95273l0 0c16.12207 0 31.583984 -6.3164062 42.9834 -17.559753c11.400391 -11.243317 17.804688 -26.492523 17.804688 -42.392975l0 0c0 -33.110992 -27.21582 -59.95276 -60.788086 -59.95276l0 0c-33.57129 0 -60.78711 26.841766 -60.78711 59.95276z" fill-rule="evenodd"/><path stroke="#00ff00" stroke-width="12.0" stroke-linejoin="round" stroke-linecap="butt" d="m8612.218 351.7874l0 0c0 33.110992 27.21582 59.95273 60.78711 59.95273l0 0c16.12207 0 31.583984 -6.3164062 42.9834 -17.559753c11.400391 -11.243317 17.804688 -26.492523 17.804688 -42.392975l0 0c0 -33.110992 -27.21582 -59.95276 -60.788086 -59.95276l0 0c-33.57129 0 -60.78711 26.841766 -60.78711 59.95276z" fill-rule="evenodd"/><path fill="#000000" fill-opacity="0.0" d="m8590.876 378.65247l0 -311.77954l-196.18848 0l0 311.77954z" fill-rule="evenodd"/><path stroke="#ff0000" stroke-width="12.0" stroke-linejoin="round" stroke-linecap="butt" d="m8590.876 378.65247l0 -311.77954l-196.18848 0l0 311.77954z" fill-rule="evenodd"/><path fill="#000000" fill-opacity="0.0" d="m8777.499 215.5958l153.66895 0l0 -145.22833l-153.66895 0z" fill-rule="evenodd"/><path stroke="#ffff00" stroke-width="12.0" stroke-linejoin="round" stroke-linecap="butt" d="m8777.499 215.5958l153.66895 0l0 -145.22833l-153.66895 0z" fill-rule="evenodd"/><path fill="#000000" fill-opacity="0.0" d="m7603.1333 70.08245l311.7793 0l0 196.18896l-311.7793 0z" fill-rule="evenodd"/><path stroke="#9900ff" stroke-width="12.0" stroke-linejoin="round" stroke-linecap="butt" d="m7603.1333 70.08245l311.7793 0l0 196.18896l-311.7793 0z" fill-rule="evenodd"/><path fill="#000000" fill-opacity="0.0" d="m8021.6797 33.800526l153.66943 0l0 145.22835l-153.66943 0z" fill-rule="evenodd"/><path stroke="#ff00ff" stroke-width="12.0" stroke-linejoin="round" stroke-linecap="butt" d="m8021.6797 33.800526l153.66943 0l0 145.22835l-153.66943 0z" fill-rule="evenodd"/><path fill="#000000" fill-opacity="0.0" d="m7937.3125 77.944885l81.85791 0l0 333.79526l-81.85791 0z" fill-rule="evenodd"/><path stroke="#ffff00" stroke-width="12.0" stroke-linejoin="round" stroke-linecap="butt" d="m7937.3125 77.944885l81.85791 0l0 333.79526l-81.85791 0z" fill-rule="evenodd"/><path fill="#000000" fill-opacity="0.0" d="m7281.059 173.3147l0 81.85826l-333.79492 0l0 -81.85826z" fill-rule="evenodd"/><path stroke="#ff9900" stroke-width="12.0" stroke-linejoin="round" stroke-linecap="butt" d="m7281.059 173.3147l0 81.85826l-333.79492 0l0 -81.85826z" fill-rule="evenodd"/><path fill="#000000" fill-opacity="0.0" d="m7460.218 93.75328l0 0c0 -33.110992 27.215332 -59.952755 60.787598 -59.952755l0 0c16.121582 0 31.583008 6.316433 42.98291 17.559753c11.399902 11.243324 17.8042 26.492542 17.8042 42.393l0 0c0 33.110992 -27.215332 59.95276 -60.78711 59.95276l0 0c-33.572266 0 -60.787598 -26.841766 -60.787598 -59.95276z" fill-rule="evenodd"/><path stroke="#ff0000" stroke-width="12.0" stroke-linejoin="round" stroke-linecap="butt" d="m7460.218 93.75328l0 0c0 -33.110992 27.215332 -59.952755 60.787598 -59.952755l0 0c16.121582 0 31.583008 6.316433 42.98291 17.559753c11.399902 11.243324 17.8042 26.492542 17.8042 42.393l0 0c0 33.110992 -27.215332 59.95276 -60.78711 59.95276l0 0c-33.572266 0 -60.787598 -26.841766 -60.787598 -59.95276z" fill-rule="evenodd"/><path fill="#000000" fill-opacity="0.0" d="m7438.876 66.88822l0 311.77954l-196.18896 0l0 -311.77954z" fill-rule="evenodd"/><path stroke="#0000ff" stroke-width="12.0" stroke-linejoin="round" stroke-linecap="butt" d="m7438.876 66.88822l0 311.77954l-196.18896 0l0 -311.77954z" fill-rule="evenodd"/><path fill="#000000" fill-opacity="0.0" d="m7625.4985 229.94489l153.66943 0l0 145.22833l-153.66943 0z" fill-rule="evenodd"/><path stroke="#00ff00" stroke-width="12.0" stroke-linejoin="round" stroke-linecap="butt" d="m7625.4985 229.94489l153.66943 0l0 145.22833l-153.66943 0z" fill-rule="evenodd"/><path fill="#000000" fill-opacity="0.0" d="m11083.133 375.45822l311.78027 0l0 -196.18896l-311.78027 0z" fill-rule="evenodd"/><path stroke="#00ff00" stroke-width="12.0" stroke-linejoin="round" stroke-linecap="butt" d="m11083.133 375.45822l311.78027 0l0 -196.18896l-311.78027 0z" fill-rule="evenodd"/><path fill="#000000" fill-opacity="0.0" d="m11501.68 411.74014l153.66895 0l0 -145.22833l-153.66895 0z" fill-rule="evenodd"/><path stroke="#0000ff" stroke-width="12.0" stroke-linejoin="round" stroke-linecap="butt" d="m11501.68 411.74014l153.66895 0l0 -145.22833l-153.66895 0z" fill-rule="evenodd"/><path fill="#000000" fill-opacity="0.0" d="m11417.3125 367.5958l81.8584 0l0 -333.79526l-81.8584 0z" fill-rule="evenodd"/><path stroke="#ff0000" stroke-width="12.0" stroke-linejoin="round" stroke-linecap="butt" d="m11417.3125 367.5958l81.8584 0l0 -333.79526l-81.8584 0z" fill-rule="evenodd"/><path fill="#000000" fill-opacity="0.0" d="m10761.06 272.22598l0 -81.85826l-333.7959 0l0 81.85826z" fill-rule="evenodd"/><path stroke="#ffff00" stroke-width="12.0" stroke-linejoin="round" stroke-linecap="butt" d="m10761.06 272.22598l0 -81.85826l-333.7959 0l0 81.85826z" fill-rule="evenodd"/><path fill="#000000" fill-opacity="0.0" d="m10940.218 351.7874l0 0c0 33.110992 27.21582 59.95273 60.78711 59.95273l0 0c16.12207 0 31.583984 -6.3164062 42.9834 -17.559753c11.400391 -11.243317 17.804688 -26.492523 17.804688 -42.392975l0 0c0 -33.110992 -27.21582 -59.95276 -60.788086 -59.95276l0 0c-33.57129 0 -60.78711 26.841766 -60.78711 59.95276z" fill-rule="evenodd"/><path stroke="#ff00ff" stroke-width="12.0" stroke-linejoin="round" stroke-linecap="butt" d="m10940.218 351.7874l0 0c0 33.110992 27.21582 59.95273 60.78711 59.95273l0 0c16.12207 0 31.583984 -6.3164062 42.9834 -17.559753c11.400391 -11.243317 17.804688 -26.492523 17.804688 -42.392975l0 0c0 -33.110992 -27.21582 -59.95276 -60.788086 -59.95276l0 0c-33.57129 0 -60.78711 26.841766 -60.78711 59.95276z" fill-rule="evenodd"/><path fill="#000000" fill-opacity="0.0" d="m11105.499 215.5958l153.66895 0l0 -145.22833l-153.66895 0z" fill-rule="evenodd"/><path stroke="#ff9900" stroke-width="12.0" stroke-linejoin="round" stroke-linecap="butt" d="m11105.499 215.5958l153.66895 0l0 -145.22833l-153.66895 0z" fill-rule="evenodd"/><path fill="#000000" fill-opacity="0.0" d="m10918.876 378.65247l0 -311.77954l-196.18848 0l0 311.77954z" fill-rule="evenodd"/><path stroke="#9900ff" stroke-width="12.0" stroke-linejoin="round" stroke-linecap="butt" d="m10918.876 378.65247l0 -311.77954l-196.18848 0l0 311.77954z" fill-rule="evenodd"/></g></svg>